<?xml version="1.0" encoding="utf-8"?>
<!-- Generator: Adobe Illustrator 24.3.0, SVG Export Plug-In . SVG Version: 6.00 Build 0)  -->
<svg version="1.1" id="Layer_1" xmlns="http://www.w3.org/2000/svg" xmlns:xlink="http://www.w3.org/1999/xlink" x="0px" y="0px"
	 viewBox="0 0 841.9 595.3" style="enable-background:new 0 0 841.9 595.3;" xml:space="preserve">
<style type="text/css">
	.st0{fill:#E1643A;}
	.st1{fill-rule:evenodd;clip-rule:evenodd;fill:#E1643A;}
</style>
<g>
	<path class="st0" d="M630,301.9c-7.3-9.3-16.9-15.5-28.2-17.5c-11.3-2-22.5,0.5-31.6,6.9c-0.4-17.9-4.6-34.7-11.6-51.1
		c24.4,3.4,46.2-13.3,50.3-36.7c3.4-24.4-13.3-46.1-36.8-50.2c-23.6-3.3-45,11.7-50,34.9c-13.1-12.1-28.3-22-44.2-28.3
		c19.5-14.4,23.6-42.3,9.1-61.8c-14.5-19.5-42.4-23.5-61.9-9.1c-18.5,13.7-23.1,39.7-10.5,59.7c-18,0.4-34.8,4.6-51.2,11.5
		c3.4-24.4-13.3-46.1-36.8-50.2c-24.3-4.3-46.9,12.3-50.3,36.7c-3.3,23.5,11.8,44.9,35,49.9c-12.1,13-22,28.3-28.4,44.1
		c-14.5-19.5-42.4-23.5-61.9-9.1c-19.5,14.4-23.6,42.3-9.1,61.8c13.7,18.5,39.8,23.1,59.9,10.6c0.4,17.9,4.6,34.7,11.6,51.1
		c-24.4-3.4-46.2,13.3-50.3,36.7c-4.1,23.4,13.3,46.1,36.8,50.2c23.6,3.3,45-11.7,50-34.9c13.1,12.1,28.3,22,44.2,28.3
		c-19.5,14.4-23.6,42.3-9.1,61.8c14.5,19.5,42.4,23.5,61.9,9.1c18.5-13.7,23.1-39.7,10.5-59.7c18-0.4,34.8-4.6,51.2-11.5
		c-3.4,24.4,13.3,46.1,36.8,50.2c24.4,3.4,46.2-13.3,50.3-36.7c3.3-23.5-11.8-44.9-35-49.9c12.1-13,22-28.3,28.3-44.1
		c14.5,19.5,42.4,23.5,61.9,9.1C640.4,349.3,644.4,321.4,630,301.9z M589.5,353.7c-9.5-1.7-17.3-8.4-20.3-17c-1.3-2.9-3.6-5.1-7-5.7
		l-6.1-1.1l-40.8-7.2c1.6,11,10,19.6,21.2,21.6l6.1,1.1c-6.4,15.8-15.2,30.4-27.2,42.5l-3.6-5.1c-6.4-9.2-18.3-13-28.6-10.4
		l14.3,20.4l5,7.1l7.9,11.2c0.7,1,1.4,2,2.3,2.2c1.6,1.2,3.3,1.5,5.2,0.9c9.1-1.1,18.2,3.2,23.9,11.4c8.6,12.2,5.7,28.7-6.4,36.4
		c-12.1,7.7-28.7,5.6-36.4-6.4c-5.7-8.2-5.8-18-2.5-26.3c1.3-2.4,1.1-6.1-1.1-9.1l-1.3-2.9l-23.6-33.6c-6,8.8-6.4,21.2,0,30.4
		l3.6,5.1c-15.6,7.1-32.2,10.4-49.3,10.9l1.2-6.9c2-11.3-3.3-22-13.1-27.3l-4.3,24.2l-2.9,16.5l-1.1,6.1c-0.6,3.5,0.7,6.4,3,8.6
		c7,5.7,9.9,15.1,8.3,23.8c-2.6,14.7-15.9,24-30.6,21.4c-14.7-2.6-24-15.8-21.4-30.6c1.7-9.5,8.4-17.3,17-20.2
		c2.9-1.3,5.1-3.6,5.7-7l1.1-6.1l2.7-15.6l4.3-24.2c-11,1.6-19.6,9.9-21.6,21.2l-1.1,6.1c-15.9-6.4-30.4-15.2-42.6-27.2l5.1-3.6
		c9.2-6.4,13.1-18.2,10.4-28.5L311.2,385l-4.9,2.7c-2.2,2.3-3.5,4.7-4.1,8.2c1.1,9.1-3.2,18.2-11.4,23.9
		c-12.2,8.6-28.7,5.6-36.4-6.4c-7.7-12.1-5.7-28.7,6.4-36.4c8.2-5.7,18-5.8,26.4-2.5c2.4,1.3,6.1,1.1,9.1-1.1l11.2-7.8l7.1-5
		l20.4-14.3c-8.8-6-21.1-7.3-30.4,0l-5.1,3.6c-7.1-15.5-10.4-32.2-11-49.3l6.1,1.1c11.3,2,22-3.3,27.3-13l-39.9-7l-6.1-1.1
		c-3.5-0.6-6.4,0.7-8.6,3c-5.9,7.9-15.3,10.7-24.8,9c-14.7-2.6-24-15.8-21.4-30.6c2.6-14.7,15.9-24,30.6-21.4
		c9.5,1.7,17.3,8.4,20.3,17c1.3,2.9,3.6,5.1,7,5.7l21.7,3.8l0.9,0.2l23.4,4.1c-1.6-11-10-19.6-21.2-21.6l-6.1-1.1
		c6.4-15.8,15.2-30.4,27.2-42.5l3.6,5.1c6.4,9.2,18.3,13,28.6,10.4L333.4,188l-3.6-5.1c-2.1-3.1-4.6-4.4-8.2-4.1
		c-9.1,1.1-18.2-3.2-23.9-11.4c-8.6-12.2-5.7-28.7,6.4-36.4c12.2-8.6,28.7-5.6,36.4,6.4c5.7,8.2,5.8,18,2.5,26.3
		c-1.3,2.4-1.1,6.1,1.1,9.1l7.9,11.2l5,7.1l14.3,20.4c6-8.8,7.3-21,0-30.4l-3.6-5.1c15.6-7.1,32.2-10.4,49.3-10.9l-1.1,6.1
		c-2,11.3,3.3,22,13.1,27.3l4.3-24.2l2.7-15.6l1.1-6.1c0.6-3.5-0.7-6.4-3-8.6c-7-5.7-10.7-15.3-9-24.8c2.6-14.7,15.9-24,30.6-21.4
		c14.7,2.6,24,15.8,21.4,30.6c-1.7,9.5-8.4,17.3-17,20.2c-2.9,1.3-5.1,3.6-5.7,7l-1.1,6.1l-2.7,15.6l-4.3,24.2
		c11-1.6,19.6-9.9,21.6-21.2l1.1-6.1c15.9,6.4,30.4,15.2,42.6,27.2l-5.1,3.6c-9.2,6.4-13.1,18.2-10.4,28.5l20.4-14.3l7.1-5l11.2-7.8
		c2.2-2.3,3.5-4.7,4.1-8.2c-1-14.5,9.2-26.9,23.9-28.8c9.1-1.1,18.2,3.2,23.9,11.4c8.6,12.2,5.7,28.7-6.4,36.4
		c-8.2,5.7-18,5.8-26.4,2.5c-2.5-1.3-6.1-1.1-9.1,1.1l-4.2,3.7l-33.7,23.5c8.8,6,21.2,6.4,30.4,0l5.1-3.6
		c7.1,15.5,10.4,32.2,11,49.3l-6.9-1.2c-11.3-2-22,3.3-27.3,13l24.3,4.3l0.9,0.2l22.6,4c3.5,0.6,6.4-0.7,8.6-3
		c4.8-7.2,14.4-10.8,23.1-9.3c14.7,2.6,24,15.8,21.4,30.6C617.5,347,604.3,356.3,589.5,353.7z"/>
	<path class="st1" d="M446.5,317.8c-6.1-1.1-9.5-7-8.6-12.2l3.4-19c1.1-6.1,7-9.5,12.2-8.6c5.2,0.9,9.5,7,8.6,12.2l-3.4,19
		C457.7,315.3,452.6,318.9,446.5,317.8z M448,369.8c-2.6-0.5-5.1-1.8-6.5-3.8c-15.3-19.7-42.2-24.4-63.3-11.2
		c-5.1,3.6-11.9,1.5-15.5-3.6c-3.6-5.1-1.5-11.9,3.6-15.4c30.3-19.7,70.2-12.6,92.8,16.4c3.6,5.1,2.4,12-1.9,15.7
		C454.4,369.2,451.5,370.5,448,369.8z M381.5,295.6c-0.9,5.2,2.5,11.2,8.6,12.2c6.1,1.1,11.2-2.5,12.2-8.6l3.4-19
		c0.9-5.2-3.4-11.3-8.6-12.2c-5.2-0.9-11.2,2.5-12.2,8.6L381.5,295.6z"/>
</g>
</svg>
